<svg id="Smart_control" height="512" viewBox="0 0 64 64" width="512" xmlns="http://www.w3.org/2000/svg" data-name="Smart control"><path d="m61 29v32h-42v-32l21-8z" fill="#57565c"/><path d="m23 61h34v-30l-17-6-17 6z" fill="#e0e0e2"/><rect fill="#e9e9ea" height="35" rx="2" width="22" x="7" y="8"/><path d="m11 12h14v25h-14z" fill="#2488ff"/><circle cx="18" cy="21" fill="#ff9811" r="3"/><path d="m15 61-1.855-15.2a2 2 0 0 1 .3-1.467l.712-1.068a5 5 0 0 0 .843-2.779v-.415a5 5 0 0 0 -1.464-3.535l-.536-.536 2.272-3.787a1.811 1.811 0 0 0 -.272-2.213 1.811 1.811 0 0 0 -2.213-.272l-3.117 1.872a1 1 0 0 1 -1.222-.15l-1.155-1.157a1 1 0 0 1 -.293-.707v-11.586l-3.857 9.642a2.016 2.016 0 0 0 -.143.743v10.282a4 4 0 0 0 .8 2.4l.66.879a6.005 6.005 0 0 1 1.118 4.586l-1.578 14.468z" fill="#ffcbbe"/><g fill="#91dc5a"><path d="m47 47h5a0 0 0 0 1 0 0 7 7 0 0 1 -7 7h-5a0 0 0 0 1 0 0 7 7 0 0 1 7-7z"/><path d="m28 47h5a7 7 0 0 1 7 7 0 0 0 0 1 0 0h-5a7 7 0 0 1 -7-7 0 0 0 0 1 0 0z" transform="matrix(-1 0 0 -1 68 101)"/><path d="m47 36h4a0 0 0 0 1 0 0 7 7 0 0 1 -7 7h-4a0 0 0 0 1 0 0 7 7 0 0 1 7-7z"/><path d="m29 36h4a7 7 0 0 1 7 7 0 0 0 0 1 0 0h-4a7 7 0 0 1 -7-7 0 0 0 0 1 0 0z" transform="matrix(-1 0 0 -1 69 79)"/></g><path d="m61.36 28.07-21-8a.994.994 0 0 0 -.72 0l-9.64 3.67v-13.74a3.009 3.009 0 0 0 -3-3h-18a3.009 3.009 0 0 0 -3 3v7.81l-3.8 9.48a3.237 3.237 0 0 0 -.2 1.1v10.28a4.964 4.964 0 0 0 1 3l.66.88a5.044 5.044 0 0 1 .93 3.87l-1.58 14.47a.975.975 0 0 0 .25.78 1 1 0 0 0 .74.33h11a.981.981 0 0 0 .75-.34.968.968 0 0 0 .24-.78l-1.87-15.26a1.02 1.02 0 0 1 .16-.74l.59-.88h3.13v17a1 1 0 0 0 1 1h42a1 1 0 0 0 1-1v-32a.989.989 0 0 0 -.64-.93zm-49.07 8.64.54.54a2.51 2.51 0 0 1 .31.35c0 .01.01.01.02.01l-.01.01a3.983 3.983 0 0 1 .85 2.45v.42a3.993 3.993 0 0 1 -.67 2.22l-.71 1.06a2.962 2.962 0 0 0 -.47 2.14l1.72 14.09h-8.75l1.45-13.31a7.056 7.056 0 0 0 -1.31-5.34l-.66-.88a3.018 3.018 0 0 1 -.6-1.8v-10.28a.986.986 0 0 1 .07-.38l1.93-4.82v6.4a2.016 2.016 0 0 0 .58 1.41l1.16 1.16a2.023 2.023 0 0 0 2.45.3l1.33-.8 1.8-1.08a.809.809 0 0 1 .97.13.788.788 0 0 1 .12.99l-2.27 3.79a1.014 1.014 0 0 0 .15 1.22zm2.12-.71c-.05-.05-.1-.1-.15-.16l1.86-3.11a2.8 2.8 0 0 0 -.41-3.44 2.883 2.883 0 0 0 -3.43-.42l-.28.17v-16.04h12v23zm7.59 24h-2v-16h2zm-6.21-18a5.854 5.854 0 0 0 .21-1.51v-.42a6.07 6.07 0 0 0 -.38-2.07h9.38a1 1 0 0 0 1-1v-25a1 1 0 0 0 -1-1h-14a1 1 0 0 0 -1 1v18.23l-.84.51-1.16-1.15v-19.59a1 1 0 0 1 1-1h18a1 1 0 0 1 1 1v31a1 1 0 0 1 -1 1zm23.21 6.73a7.974 7.974 0 0 0 -6-2.73h-5a1 1 0 0 0 -1 1 8.011 8.011 0 0 0 8 8h4v5h-15v-16h3a3 3 0 0 0 2.98-2.75 7.967 7.967 0 0 0 6.02 2.75h3zm-.08 4.27h-3.92a6.017 6.017 0 0 1 -5.92-5h3.92a6.017 6.017 0 0 1 5.92 5zm-8.84-16h2.92a6.017 6.017 0 0 1 5.92 5h-2.92a6.017 6.017 0 0 1 -5.92-5zm25.92 23h-15v-5h4a8.011 8.011 0 0 0 8-8 1 1 0 0 0 -1-1h-5a7.974 7.974 0 0 0 -6 2.73v-4.73h3a8.011 8.011 0 0 0 8-8 1 1 0 0 0 -1-1h-4a8 8 0 0 0 -7 4.14 8 8 0 0 0 -7-4.14h-3v-5.41l10-3.53 16 5.65zm-14.92-7a6.017 6.017 0 0 1 5.92-5h3.92a6.017 6.017 0 0 1 -5.92 5zm0-11a6.017 6.017 0 0 1 5.92-5h2.92a6.017 6.017 0 0 1 -5.92 5zm18.92 18h-2v-29a1 1 0 0 0 -.67-.94l-17-6a.937.937 0 0 0 -.66 0l-9.67 3.41v-1.59l10-3.81 20 7.62z"/><path d="m22 21a4 4 0 1 0 -4 4 4 4 0 0 0 4-4zm-6 0a2 2 0 1 1 2 2 2 2 0 0 1 -2-2z"/><path d="m44.586 14.586a2 2 0 1 0 2.828 0 2 2 0 0 0 -2.828 0z"/><path d="m50.242 11.757a6 6 0 0 0 -8.484 0l1.414 1.414a4.1 4.1 0 0 1 5.656 0z"/><path d="m53.071 8.929a10 10 0 0 0 -14.142 0l1.414 1.414a8 8 0 0 1 11.314 0z"/><path d="m54.485 7.515 1.415-1.415a14.016 14.016 0 0 0 -19.8 0l1.414 1.414a12.014 12.014 0 0 1 16.971.001z"/></svg>