<?xml version="1.0" encoding="iso-8859-1"?>
<!-- Generator: Adobe Illustrator 19.0.0, SVG Export Plug-In . SVG Version: 6.00 Build 0)  -->
<svg xmlns="http://www.w3.org/2000/svg" xmlns:xlink="http://www.w3.org/1999/xlink" version="1.1" id="Layer_1" x="0px" y="0px" viewBox="0 0 512.002 512.002" style="enable-background:new 0 0 512.002 512.002;" xml:space="preserve" width="512" height="512">
<g id="XMLID_1876_">
	<rect id="XMLID_2214_" x="132.001" y="137" style="fill:#C9F3FF;" width="248" height="164"/>
	<rect id="XMLID_2213_" x="116.001" y="301" style="fill:#72D8FF;" width="280" height="40"/>
	<path id="XMLID_2161_" style="fill:#B3B6C3;" d="M208.001,342v112c0,13.255,10.745,24,24,24h0c13.255,0,24-10.745,24-24V342"/>
	<path id="XMLID_2160_" style="fill:#B3B6C3;" d="M304.001,342v112c0,13.255-10.745,24-24,24h0c-13.255,0-24-10.745-24-24V342"/>
	<path id="XMLID_1752_" style="fill:#72D8FF;" d="M344.001,137v-7.167c0-21.999-17.834-39.833-39.833-39.833h-96.333   c-21.999,0-39.833,17.834-39.833,39.833V137H344.001z"/>
	<path id="XMLID_1751_" style="fill:#FCCD9D;" d="M256.001,10L256.001,10c-22.091,0-40,17.909-40,40v0c0,22.091,17.909,40,40,40h0   c22.091,0,40-17.909,40-40v0C296.001,27.909,278.092,10,256.001,10z"/>
	<rect id="XMLID_2284_" x="184.001" y="179" style="fill:#FF5D5D;" width="144" height="80"/>
	<g id="XMLID_734_">
		<path id="XMLID_737_" d="M406.001,340.99V301c0-5.522-4.477-10-10-10h-6V137c0-5.522-4.477-10-10-10h-26.086    c-1.474-26.164-23.221-47-49.748-47h-8.194c6.292-8.363,10.027-18.753,10.027-30c0-27.57-22.43-50-50-50s-50,22.43-50,50    c0,11.247,3.735,21.637,10.027,30h-8.194c-26.527,0-48.273,20.836-49.748,47h-26.086c-5.523,0-10,4.478-10,10v40.223    c0,5.522,4.477,10,10,10s10-4.478,10-10V147h26h176h26v144h-228v-33.777c0-5.522-4.477-10-10-10s-10,4.478-10,10V291h-6    c-5.523,0-10,4.478-10,10v40v161c0,5.522,4.477,10,10,10s10-4.478,10-10V351h20v127c0,5.522,4.477,10,10,10s10-4.478,10-10V351h32    v103c0,18.748,15.252,34,34,34c9.359,0,17.846-3.802,24-9.94c6.154,6.139,14.641,9.94,24,9.94c18.748,0,34-15.252,34-34V351h32    v127c0,5.522,4.477,10,10,10s10-4.478,10-10V351h20v111c0,5.522,4.477,10,10,10s10-4.478,10-10V341    C406.001,340.997,406.001,340.994,406.001,340.99z M226.001,50c0-16.542,13.458-30,30-30s30,13.458,30,30s-13.458,30-30,30    S226.001,66.542,226.001,50z M178.134,127c1.432-15.126,14.206-27,29.7-27h96.333c15.494,0,28.268,11.874,29.7,27H178.134z     M232.001,468c-7.72,0-14-6.28-14-14V351h28v103C246.001,461.72,239.72,468,232.001,468z M294.001,454c0,7.72-6.28,14-14,14    s-14-6.28-14-14V351h28V454z M386.001,331h-260v-20h6h248h6V331z"/>
		<path id="XMLID_744_" d="M328.001,269c5.523,0,10-4.478,10-10v-80c0-5.522-4.477-10-10-10h-144c-5.523,0-10,4.478-10,10v80    c0,5.522,4.477,10,10,10H328.001z M194.001,189h124v60h-124V189z"/>
		<path id="XMLID_745_" d="M269.192,197.055l-19.121,19.121l-7.262-7.262c-3.905-3.904-10.237-3.904-14.143,0    c-3.905,3.905-3.905,10.237,0,14.143L243,237.39c1.953,1.952,4.512,2.929,7.071,2.929s5.119-0.977,7.071-2.929l26.192-26.192    c3.905-3.905,3.905-10.237,0-14.143C279.429,193.15,273.097,193.15,269.192,197.055z"/>
		<path id="XMLID_746_" d="M396.001,492.002c-2.63,0-5.21,1.07-7.07,2.93c-1.86,1.86-2.93,4.44-2.93,7.07s1.07,5.21,2.93,7.07    c1.86,1.859,4.44,2.93,7.07,2.93c2.63,0,5.21-1.07,7.07-2.93c1.86-1.86,2.93-4.44,2.93-7.07s-1.07-5.21-2.93-7.07    C401.211,493.072,398.631,492.002,396.001,492.002z"/>
		<path id="XMLID_747_" d="M132.001,227.222c2.63,0,5.21-1.069,7.07-2.93s2.93-4.44,2.93-7.07s-1.07-5.21-2.93-7.069    c-1.86-1.86-4.44-2.931-7.07-2.931c-2.63,0-5.21,1.07-7.07,2.931c-1.86,1.859-2.93,4.439-2.93,7.069s1.07,5.21,2.93,7.07    C126.791,226.152,129.37,227.222,132.001,227.222z"/>
	</g>
</g>















</svg>
