<svg id="Capa_1" enable-background="new 0 0 512 512" height="512" viewBox="0 0 512 512" width="512" xmlns="http://www.w3.org/2000/svg"><g><path d="m178.715 7.046c-2.739-4.38-7.727-6.57-12.715-6.57s-9.976 2.19-12.715 6.57c-6.225 9.946-153.285 245.717-153.285 338.954 0 90.981 75.019 166 166 166s166-75.019 166-166c0-93.237-147.06-329.008-153.285-338.954z" fill="#e6f7ff"/><path d="m332 346c0-93.237-147.06-329.008-153.285-338.954-2.739-4.38-7.727-6.57-12.715-6.57v511.524c90.981 0 166-75.019 166-166z" fill="#cde2ff"/><path d="m407 0c-57.891 0-105 48.109-105 106s47.109 105 105 105 105-47.109 105-105-47.109-106-105-106z" fill="#7ed96c"/><path d="m512 106c0-57.891-47.109-106-105-106v211c57.891 0 105-47.109 105-105z" fill="#48b348"/><path d="m447.605 80.395c-5.859-5.859-15.352-5.859-21.211 0l-19.394 19.394-15 15-11.895-11.895c-5.859-5.859-15.352-5.859-21.211 0s-5.859 15.352 0 21.211l22.5 22.5c2.93 2.93 6.768 4.395 10.605 4.395s7.676-1.465 10.605-4.395l4.395-4.395 40.605-40.605c5.861-5.859 5.861-15.351.001-21.21z" fill="#f9f4f3"/><path d="m447.605 80.395c-5.859-5.859-15.352-5.859-21.211 0l-19.394 19.394v42.422l40.605-40.605c5.86-5.86 5.86-15.352 0-21.211z" fill="#f0e6e1"/></g></svg>